PathFileType	4	(X/Y/Z)	D:\TRACE\spotREDO_2-26-24\spot_Both_Motion_3_7-v60.trc
DataRate	CameraRate	NumFrames	NumMarkers	Units	OrigDataRate	OrigDataStartFrame	OrigNumFrames
100.00	100.00	      42	9	mm	100.00	876	      7000
Frame#	Time	front left toe			Front right toe			aft left toe			aft right toe			Arm			FL body			FR body			AL Body			AR Body			
		X1	Y1	Z1	X2	Y2	Z2	X3	Y3	Z3	X4	Y4	Z4	X5	Y5	Z5	X6	Y6	Z6	X7	Y7	Z7	X8	Y8	Z8	X9	Y9	Z9	

876	8.750	-173.54750	-9.69845	-470.65637	206.35611	-6.37167	-465.92352	-210.63196	22.34684	121.74452	201.23293	32.66418	131.15765	54.34445	673.54065	-781.12097	-97.47424	539.88910	-547.09930	57.61668	543.78003	-544.97888	-118.79255	572.24133	335.85672	27.78131	565.98773	341.27612	
877	8.760	-173.38336	-9.78939	-470.78967	206.57265	-6.50606	-465.97607	-210.48140	22.45284	121.66499	201.34045	32.58706	131.01212	54.50561	673.36743	-781.14917	-97.34093	540.05280	-547.78876	58.05192	543.74976	-545.49127	-118.18374	572.02570	335.39172	28.32581	565.64801	340.79718	
878	8.770	-173.26053	-9.83678	-470.86978	206.91145	-6.73549	-466.10016	-210.28236	22.47477	121.60799	201.47844	32.59268	130.88095	54.56099	673.28949	-781.18939	-96.51903	539.97668	-548.38763	58.75049	543.38776	-545.40918	-117.71692	571.75977	334.89023	28.88367	565.39563	340.37601	
879	8.780	-172.96245	-9.96340	-470.83926	206.79904	-6.57406	-466.09427	-210.06924	22.47913	121.62753	201.70787	32.61728	130.87570	54.65292	673.14319	-781.11310	-95.80267	539.96814	-548.72205	59.17704	543.58966	-546.48267	-117.19771	571.57629	334.38998	29.41663	564.89410	339.73602	
880	8.790	-173.53842	-9.20299	-471.03149	206.96181	-6.61950	-466.05621	-209.80264	22.54940	121.65675	201.93382	32.70539	130.84596	54.70972	673.17932	-781.02502	-95.42063	540.16687	-549.20654	59.75814	543.66791	-546.95660	-116.38209	571.43164	333.88049	29.96494	564.75110	339.26694	
881	8.800	-173.20560	-9.36232	-471.05194	207.12407	-6.94972	-466.15170	-209.55763	22.70402	121.59667	202.16721	32.75168	130.88023	54.82884	673.06958	-780.94830	-94.65205	540.17596	-549.65619	60.55350	543.71832	-547.36572	-116.05437	571.17694	333.41412	30.40070	564.33759	338.85934	
882	8.810	-173.00746	-9.39497	-471.09390	207.29898	-6.94844	-466.08960	-209.42509	22.71091	121.53569	202.40575	32.79976	130.87897	54.87405	672.95978	-780.89606	-94.34798	540.53351	-550.17621	61.34676	543.35632	-547.24957	-115.76156	571.05518	332.88077	30.64915	564.14880	338.45667	
883	8.820	-172.51895	-9.62886	-471.28201	207.59877	-6.81944	-466.11353	-209.40132	22.65456	121.48303	202.69797	32.85334	130.88087	54.93349	672.66528	-780.94910	-93.36942	540.65796	-550.81250	62.21038	543.56323	-547.60406	-115.17426	570.67670	332.42554	31.29611	563.84833	338.04053	
884	8.830	-172.40224	-9.71305	-471.30115	207.67920	-6.87571	-466.07922	-209.38464	22.71119	121.47076	202.82455	32.92926	130.87730	54.73956	672.07788	-781.43329	-92.48069	540.55847	-551.08252	62.82225	543.44971	-547.97479	-114.63309	570.57996	332.05823	32.03033	563.57385	337.75314	
885	8.840	-172.31194	-9.73811	-471.39484	207.98755	-6.95789	-466.05005	-209.31915	22.84222	121.47002	202.68903	32.92254	130.90462	54.39227	670.94940	-782.26001	-91.41470	540.72644	-551.26880	64.10969	543.32507	-548.03979	-114.39631	570.58362	331.85840	32.34432	563.38226	337.70276	
886	8.850	-172.17502	-9.57173	-471.54871	208.39102	-7.11389	-466.09564	-209.30904	22.80770	121.40733	202.80246	32.92258	130.96317	52.40744	669.66949	-783.97485	-89.81689	541.06256	-551.45416	65.51913	543.29047	-548.00385	-114.36133	570.71759	331.72101	32.76836	562.95782	337.69809	
887	8.860	-171.87068	-9.43673	-471.77399	208.68500	-7.57246	-465.84277	-209.30542	22.82385	121.39123	202.76434	32.86152	131.05194	49.82816	668.05457	-785.56415	-88.47759	541.05975	-551.52277	66.58920	543.28900	-548.29834	-114.31279	570.72369	331.53711	32.84487	562.68719	337.68396	
888	8.870	-171.53630	-9.43543	-471.85645	208.88573	-7.90141	-465.73834	-209.32764	22.77326	121.40141	202.79884	32.89221	131.17244	46.75793	666.33240	-787.07935	-87.03185	540.60748	-551.62524	68.26604	542.93561	-548.22418	-113.98171	570.76611	331.49747	32.99306	562.69684	337.77271	
889	8.880	-171.15056	-9.52395	-471.84558	209.15572	-8.13353	-465.67059	-209.22932	22.88846	121.32075	202.89845	32.91703	131.23457	43.92686	665.15350	-788.61786	-85.86784	540.18896	-551.63684	69.27273	542.66614	-548.23328	-113.48013	570.66858	331.33557	34.14554	562.79651	338.23679	
890	8.890	-171.08885	-9.55454	-471.80176	209.31181	-8.03431	-465.61914	-209.07504	23.00066	121.22207	203.14835	32.87672	131.24823	41.32002	664.05524	-789.74420	-84.99592	539.70599	-551.50189	70.11290	542.10211	-548.12231	-112.05204	570.82263	331.41971	34.77418	562.88855	337.90811	
891	8.900	-171.11761	-9.69070	-471.76251	209.16942	-8.06424	-465.73599	-208.81383	23.24025	121.24310	203.38040	32.82161	131.20450	40.75715	663.14850	-790.38989	-85.00183	539.46863	-551.52692	70.36339	541.52045	-548.30939	-110.83210	571.17175	331.40976	35.97124	563.06274	337.82541	
892	8.910	-171.19115	-9.91006	-471.52530	209.06874	-8.05257	-466.02979	-208.39146	23.39122	121.26297	203.67188	32.78996	131.22211	40.35627	662.83380	-790.54614	-84.93994	538.87177	-551.42975	70.12409	541.00537	-548.59711	-108.70335	571.41986	331.62503	38.11911	563.40918	337.62524	
893	8.920	-171.57449	-9.98104	-471.33218	208.89194	-7.70031	-466.23325	-207.90190	23.56476	121.37977	204.14259	32.68811	131.10684	41.34328	662.65112	-790.44696	-85.47838	537.93896	-551.24487	69.72278	540.21436	-548.41272	-106.82373	571.68549	331.78372	40.23677	563.58868	337.48981	
894	8.930	-171.75404	-10.13858	-471.27267	208.66943	-7.44628	-466.43988	-207.57938	23.74245	121.36410	204.26799	32.27784	130.76070	42.75549	662.78131	-790.46912	-86.18607	537.62482	-551.17487	69.21672	539.59515	-548.70911	-104.85435	571.86780	331.87338	42.14344	563.98962	337.08444	
895	8.940	-171.71684	-10.26830	-471.07477	208.59879	-7.33363	-466.51776	-207.40102	23.95345	121.36038	204.61005	31.97821	130.60725	45.02473	662.67426	-789.58130	-86.35398	536.99652	-550.87744	68.98855	539.49060	-549.33838	-103.11707	572.12646	332.06143	43.80547	564.17395	336.74222	
896	8.950	-171.60834	-10.19011	-470.91922	208.60779	-7.13998	-466.43344	-207.19659	24.03915	121.32092	204.79541	31.85504	130.60905	47.18021	662.98145	-789.25482	-86.33606	536.44873	-550.47235	68.87183	539.01471	-549.43158	-101.51402	572.25116	332.10379	45.33644	564.43524	336.69171	
897	8.960	-171.52293	-10.07320	-470.87900	208.64085	-7.15368	-466.41293	-207.11954	24.15307	121.33664	204.95357	31.87340	130.64917	48.87146	663.45282	-788.81726	-86.13374	536.44189	-550.72223	69.39368	538.75861	-549.49579	-100.45466	572.35547	332.20203	46.40227	564.41266	336.68582	
898	8.970	-171.37152	-9.91755	-470.91476	208.79076	-7.26364	-466.33688	-207.12904	24.13947	121.34904	204.89037	31.84746	130.68341	50.41510	663.77673	-788.06689	-85.04342	536.59064	-550.70294	70.35503	538.43787	-548.94232	-100.13329	572.43689	332.26086	47.05389	564.38129	336.90472	
899	8.980	-171.08505	-9.81365	-470.96146	209.04878	-7.67961	-466.34384	-207.24995	23.91595	121.36134	204.55766	31.71073	130.67819	51.37312	664.20361	-787.77539	-83.51974	536.58331	-550.52136	71.68458	538.67743	-549.12561	-100.07198	572.31805	332.37073	47.28203	564.20258	337.27554	
900	8.990	-170.65347	-9.41075	-471.15735	209.29514	-7.90218	-466.01605	-207.42323	23.66692	121.40776	204.44012	31.79981	130.87170	51.52998	664.63623	-787.68365	-81.91441	536.66907	-550.54352	73.33936	538.88806	-548.69946	-100.11030	572.15881	332.51715	47.23556	564.02271	337.73148	
901	9.000	-170.49173	-8.82164	-471.37598	209.40642	-7.87146	-465.82571	-207.42935	23.45695	121.35936	204.39165	31.88298	130.99965	51.21843	665.07111	-787.69354	-79.62192	536.80737	-550.40820	75.51682	538.94177	-548.06342	-100.27540	572.00922	332.69690	46.85403	563.92889	338.08228	
902	9.010	-170.42473	-8.34997	-471.47595	209.57208	-7.95962	-465.63010	-207.51704	23.48726	121.27827	204.32899	32.04863	131.31430	50.22991	665.34283	-787.94928	-77.70248	536.93170	-550.15723	77.47186	539.10059	-547.52759	-100.36880	571.96320	332.83624	46.55806	563.95233	338.47238	
903	9.020	-170.14761	-8.00782	-471.44489	209.98447	-7.98163	-465.32651	-207.55934	23.35921	121.25466	204.36177	32.24038	131.67468	49.19925	665.58734	-788.39581	-75.64063	537.01044	-549.75690	79.58651	539.21326	-546.72858	-100.42166	571.91125	333.00717	46.58747	564.05084	339.35373	
904	9.030	-169.96451	-7.81714	-471.51736	210.14468	-8.04377	-465.21255	-207.57613	23.30439	121.24979	204.39876	32.21185	131.80144	48.34584	665.44043	-788.46368	-74.05852	537.00037	-549.47681	81.33235	539.12585	-545.65802	-100.19848	571.94208	333.39529	47.14624	564.05438	339.89996	
905	9.040	-169.81215	-7.71914	-471.54764	210.10863	-8.25761	-465.23557	-207.56471	23.44317	121.17989	204.45378	32.16591	131.81927	46.63492	665.66882	-788.48151	-72.72604	536.85577	-548.98145	82.54884	539.39850	-545.67645	-99.60744	572.00342	333.77670	47.68714	564.11841	340.11633	
906	9.050	-169.83589	-7.71806	-471.42480	210.17322	-8.13330	-465.21454	-207.43518	23.56847	121.21265	204.71045	32.06242	131.83412	45.83555	665.53192	-788.79327	-71.73842	536.89850	-548.56592	83.42916	539.24347	-545.19873	-98.42647	572.16437	334.26300	48.38802	564.48541	340.68384	
907	9.060	-169.89795	-7.77919	-471.29626	209.79427	-7.87837	-465.23254	-207.29224	23.77462	121.25423	204.79094	31.74973	131.69719	46.04389	665.17010	-789.07281	-70.93183	536.61627	-547.94720	84.52380	538.82532	-544.13849	-97.24504	572.39722	334.78470	49.84679	564.86859	341.21652	
908	9.070	-169.97015	-7.75978	-471.13196	209.69234	-7.84511	-465.31821	-207.17708	23.96025	121.24533	205.05211	31.62939	131.70743	45.49159	665.13062	-788.70026	-70.35788	536.33527	-547.38159	85.01229	538.73389	-543.90436	-95.31792	572.54132	335.35898	51.30480	565.15015	341.60727	
909	9.080	-170.03996	-7.71432	-470.93573	209.70741	-7.73501	-465.32297	-207.03255	24.11582	121.25920	205.40379	31.63316	131.81039	45.75236	664.92505	-788.56342	-70.00613	536.00153	-546.72705	85.18489	538.85809	-544.09088	-93.77222	572.83026	335.98453	53.28643	565.48242	342.09958	
910	9.090	-170.08101	-7.59008	-470.68820	209.57106	-7.68496	-465.30768	-206.84898	24.26463	121.40407	205.64877	31.63052	131.89398	46.51679	664.37195	-788.09344	-69.58048	535.57434	-546.10901	85.57333	538.59912	-543.59497	-92.06839	573.06396	336.70007	54.90254	565.82526	342.52527	
911	9.100	-170.03871	-7.53245	-470.54291	209.88788	-7.59895	-465.13043	-206.70506	24.38398	121.60944	205.67522	31.43518	131.90831	47.08257	664.14136	-787.78339	-69.17409	535.34576	-545.48956	86.06763	538.48120	-543.09106	-90.23108	573.23682	337.41211	56.77092	566.08240	342.92322	
912	9.110	-170.02330	-7.47475	-470.46719	209.74588	-7.39594	-465.16727	-206.62262	24.39588	121.72240	205.68172	31.20702	131.90871	47.60613	664.08575	-787.72760	-68.62392	535.06921	-544.81757	86.76804	538.10541	-542.13666	-88.85175	573.41473	337.92023	58.27784	566.16736	343.45679	
913	9.120	-170.08858	-7.23934	-470.39645	209.84827	-7.37778	-465.01343	-206.53175	24.50045	121.86462	205.75508	31.09316	131.98061	48.16132	664.09631	-787.61609	-67.64395	534.89703	-544.08362	87.43929	538.07874	-541.95624	-87.31983	573.71582	338.68936	59.71037	566.50214	344.01682	
914	9.130	-170.04398	-6.99521	-470.37396	209.94415	-7.24864	-464.84097	-206.45752	24.45700	121.96825	205.75507	30.92447	132.07574	48.56450	663.93591	-787.44910	-66.75253	535.05096	-543.49951	88.46136	537.75940	-541.33191	-86.06885	573.84381	339.49768	61.02902	566.59802	344.62167	
915	9.140	-169.93768	-6.60023	-470.31009	210.04202	-7.29685	-464.78824	-206.53023	24.50468	122.06226	205.73094	30.80068	132.13911	49.10729	663.77234	-787.16913	-65.56187	534.90173	-542.62537	89.56586	537.70795	-540.75330	-85.03736	574.02917	340.14996	62.04048	566.76654	345.50217	
916	9.150	-169.72487	-6.22380	-470.28012	210.14751	-7.26185	-464.67502	-206.53093	24.46738	122.09232	205.62636	30.71720	132.26042	49.28718	663.69910	-787.00854	-64.34548	534.86346	-542.05164	91.00454	537.67102	-539.91345	-83.91151	574.22522	340.80334	63.22670	566.65851	346.22189	
917	9.160	-169.54097	-5.89640	-470.34653	210.28972	-7.22647	-464.65881	-206.51039	24.41598	122.11108	205.58496	30.64221	132.28833	49.32437	663.64697	-786.85767	-62.63708	534.76843	-541.13171	92.52397	537.55975	-539.06134	-82.87563	574.22345	341.63120	64.27906	566.67261	346.96515	
